<svg width="64" height="64" viewBox="0 0 64 64" fill="none" xmlns="http://www.w3.org/2000/svg">
<circle opacity="0.16" cx="32" cy="32" r="31" stroke="white" stroke-width="2"/>
<circle cx="32" cy="32" r="24" fill="#FB4945"/>
<mask id="mask0_1_13242" style="mask-type:alpha" maskUnits="userSpaceOnUse" x="20" y="20" width="24" height="24">
<rect x="20" y="20" width="24" height="24" fill="white"/>
</mask>
<g mask="url(#mask0_1_13242)">
<path d="M24 27V26C24 25.4696 24.2107 24.9609 24.5858 24.5858C24.9609 24.2107 25.4696 24 26 24H28" stroke="white" stroke-width="2" stroke-linecap="round" stroke-linejoin="round"/>
<path d="M24 37V38C24 38.5304 24.2107 39.0391 24.5858 39.4142C24.9609 39.7893 25.4696 40 26 40H28" stroke="white" stroke-width="2" stroke-linecap="round" stroke-linejoin="round"/>
<path d="M36 24H38C38.5304 24 39.0391 24.2107 39.4142 24.5858C39.7893 24.9609 40 25.4696 40 26V27" stroke="white" stroke-width="2" stroke-linecap="round" stroke-linejoin="round"/>
<path d="M36 40H38C38.5304 40 39.0391 39.7893 39.4142 39.4142C39.7893 39.0391 40 38.5304 40 38V37" stroke="white" stroke-width="2" stroke-linecap="round" stroke-linejoin="round"/>
<path d="M25 32H39" stroke="white" stroke-width="2" stroke-linecap="round" stroke-linejoin="round"/>
</g>
</svg>
