<svg width="24" height="24" viewBox="0 0 24 24" fill="none" xmlns="http://www.w3.org/2000/svg">
<mask id="mask0_1_6670" style="mask-type:alpha" maskUnits="userSpaceOnUse" x="0" y="0" width="24" height="24">
<rect width="24" height="24" fill="white"/>
</mask>
<g mask="url(#mask0_1_6670)">
<path d="M7 5H5C4.46957 5 3.96086 5.21071 3.58579 5.58579C3.21071 5.96086 3 6.46957 3 7V19C3 19.5304 3.21071 20.0391 3.58579 20.4142C3.96086 20.7893 4.46957 21 5 21H10.697" stroke="#121212" stroke-width="2" stroke-linecap="round" stroke-linejoin="round"/>
<path d="M17 14V18H21" stroke="#121212" stroke-width="2" stroke-linecap="round" stroke-linejoin="round"/>
<path d="M17 11V7C17 6.46957 16.7893 5.96086 16.4142 5.58579C16.0391 5.21071 15.5304 5 15 5H13" stroke="#121212" stroke-width="2" stroke-linecap="round" stroke-linejoin="round"/>
<path d="M7 5C7 4.46957 7.21071 3.96086 7.58579 3.58579C7.96086 3.21071 8.46957 3 9 3H11C11.5304 3 12.0391 3.21071 12.4142 3.58579C12.7893 3.96086 13 4.46957 13 5C13 5.53043 12.7893 6.03914 12.4142 6.41421C12.0391 6.78929 11.5304 7 11 7H9C8.46957 7 7.96086 6.78929 7.58579 6.41421C7.21071 6.03914 7 5.53043 7 5Z" stroke="#121212" stroke-width="2" stroke-linecap="round" stroke-linejoin="round"/>
<path d="M13 18C13 19.0609 13.4214 20.0783 14.1716 20.8284C14.9217 21.5786 15.9391 22 17 22C18.0609 22 19.0783 21.5786 19.8284 20.8284C20.5786 20.0783 21 19.0609 21 18C21 16.9391 20.5786 15.9217 19.8284 15.1716C19.0783 14.4214 18.0609 14 17 14C15.9391 14 14.9217 14.4214 14.1716 15.1716C13.4214 15.9217 13 16.9391 13 18Z" stroke="#121212" stroke-width="2" stroke-linecap="round" stroke-linejoin="round"/>
<path d="M7 11H11" stroke="#121212" stroke-width="2" stroke-linecap="round" stroke-linejoin="round"/>
<path d="M7 15H10" stroke="#121212" stroke-width="2" stroke-linecap="round" stroke-linejoin="round"/>
</g>
</svg>
