<svg width="34" height="34" viewBox="0 0 34 34" fill="none" xmlns="http://www.w3.org/2000/svg">
<path d="M1 3C1 2.46957 1.21071 1.96086 1.58579 1.58579C1.96086 1.21071 2.46957 1 3 1H11C11.5304 1 12.0391 1.21071 12.4142 1.58579C12.7893 1.96086 13 2.46957 13 3V11C13 11.5304 12.7893 12.0391 12.4142 12.4142C12.0391 12.7893 11.5304 13 11 13H3C2.46957 13 1.96086 12.7893 1.58579 12.4142C1.21071 12.0391 1 11.5304 1 11V3Z" stroke="#121212" stroke-width="2" stroke-linecap="round" stroke-linejoin="round"/>
<path d="M7 27V27.02" stroke="#121212" stroke-width="2" stroke-linecap="round" stroke-linejoin="round"/>
<path d="M21 3C21 2.46957 21.2107 1.96086 21.5858 1.58579C21.9609 1.21071 22.4696 1 23 1H31C31.5304 1 32.0391 1.21071 32.4142 1.58579C32.7893 1.96086 33 2.46957 33 3V11C33 11.5304 32.7893 12.0391 32.4142 12.4142C32.0391 12.7893 31.5304 13 31 13H23C22.4696 13 21.9609 12.7893 21.5858 12.4142C21.2107 12.0391 21 11.5304 21 11V3Z" stroke="#121212" stroke-width="2" stroke-linecap="round" stroke-linejoin="round"/>
<path d="M7 7V7.02" stroke="#121212" stroke-width="2" stroke-linecap="round" stroke-linejoin="round"/>
<path d="M1 23C1 22.4696 1.21071 21.9609 1.58579 21.5858C1.96086 21.2107 2.46957 21 3 21H11C11.5304 21 12.0391 21.2107 12.4142 21.5858C12.7893 21.9609 13 22.4696 13 23V31C13 31.5304 12.7893 32.0391 12.4142 32.4142C12.0391 32.7893 11.5304 33 11 33H3C2.46957 33 1.96086 32.7893 1.58579 32.4142C1.21071 32.0391 1 31.5304 1 31V23Z" stroke="#121212" stroke-width="2" stroke-linecap="round" stroke-linejoin="round"/>
<path d="M27 7V7.02" stroke="#121212" stroke-width="2" stroke-linecap="round" stroke-linejoin="round"/>
<path d="M21 21H27" stroke="#121212" stroke-width="2" stroke-linecap="round" stroke-linejoin="round"/>
<path d="M33 21V21.02" stroke="#121212" stroke-width="2" stroke-linecap="round" stroke-linejoin="round"/>
<path d="M21 21V27" stroke="#121212" stroke-width="2" stroke-linecap="round" stroke-linejoin="round"/>
<path d="M21 33H27" stroke="#121212" stroke-width="2" stroke-linecap="round" stroke-linejoin="round"/>
<path d="M27 27H33" stroke="#121212" stroke-width="2" stroke-linecap="round" stroke-linejoin="round"/>
<path d="M33 27V33" stroke="#121212" stroke-width="2" stroke-linecap="round" stroke-linejoin="round"/>
</svg>
