<svg width="34" height="34" viewBox="0 0 34 34" fill="none" xmlns="http://www.w3.org/2000/svg">
<path d="M27 9V3C27 2.46957 26.7893 1.96086 26.4142 1.58579C26.0391 1.21071 25.5304 1 25 1H5C3.93913 1 2.92172 1.42143 2.17157 2.17157C1.42143 2.92172 1 3.93913 1 5M1 5C1 6.06087 1.42143 7.07828 2.17157 7.82843C2.92172 8.57857 3.93913 9 5 9H29C29.5304 9 30.0391 9.21071 30.4142 9.58579C30.7893 9.96086 31 10.4696 31 11V17M1 5V29C1 30.0609 1.42143 31.0783 2.17157 31.8284C2.92172 32.5786 3.93913 33 5 33H29C29.5304 33 30.0391 32.7893 30.4142 32.4142C30.7893 32.0391 31 31.5304 31 31V25" stroke="#00A266" stroke-width="2" stroke-linecap="round" stroke-linejoin="round"/>
<path d="M33 17V25H25C23.9391 25 22.9217 24.5786 22.1716 23.8284C21.4214 23.0783 21 22.0609 21 21C21 19.9391 21.4214 18.9217 22.1716 18.1716C22.9217 17.4214 23.9391 17 25 17H33Z" stroke="#00A266" stroke-width="2" stroke-linecap="round" stroke-linejoin="round"/>
</svg>
