<svg width="48" height="48" viewBox="0 0 48 48" fill="none" xmlns="http://www.w3.org/2000/svg">
<mask id="mask0_1_8949" style="mask-type:alpha" maskUnits="userSpaceOnUse" x="0" y="0" width="48" height="48">
<path d="M0 0H48V48H0V0Z" fill="white"/>
</mask>
<g mask="url(#mask0_1_8949)">
<path d="M6 16C6 14.4087 6.63214 12.8826 7.75736 11.7574C8.88258 10.6321 10.4087 10 12 10H36C37.5913 10 39.1174 10.6321 40.2426 11.7574C41.3679 12.8826 42 14.4087 42 16V32C42 33.5913 41.3679 35.1174 40.2426 36.2426C39.1174 37.3679 37.5913 38 36 38H12C10.4087 38 8.88258 37.3679 7.75736 36.2426C6.63214 35.1174 6 33.5913 6 32V16Z" stroke="#FB4945" stroke-width="2" stroke-linecap="round" stroke-linejoin="round"/>
<path d="M6 20H42" stroke="#FB4945" stroke-width="2" stroke-linecap="round" stroke-linejoin="round"/>
<path d="M14 30H14.02" stroke="#FB4945" stroke-width="2" stroke-linecap="round" stroke-linejoin="round"/>
<path d="M22 30H26" stroke="#FB4945" stroke-width="2" stroke-linecap="round" stroke-linejoin="round"/>
</g>
</svg>
