<svg width="74" height="88" viewBox="0 0 74 88" fill="none" xmlns="http://www.w3.org/2000/svg">
<path fill-rule="evenodd" clip-rule="evenodd" d="M27.7082 6.9455C18.0407 15.3957 13.9305 19.1634 11.0895 22.1792C4.99544 28.6481 1.98758 33.6371 0.466606 39.7988C0.0666287 41.4197 0.00786515 42.1431 0.000421894 45.5556C-0.00643374 48.6179 0.0685881 49.8159 0.348494 51.1173C1.03621 54.3169 2.23026 57.2547 3.81861 59.6552C4.95606 61.3742 7.35789 63.8631 9.18462 65.2159C11.076 66.6164 14.7596 68.4565 16.9129 69.0764L18.502 69.5339V76.0135V82.4932L23.2373 85.1979C25.8417 86.6853 28.0453 87.9317 28.1342 87.9674C28.2231 88.0033 28.2958 84.2491 28.2958 79.6249C28.2958 72.1859 28.3304 71.2174 28.5972 71.2174C28.7631 71.2174 29.7549 71.1247 30.8008 71.0113C38.3209 70.1962 45.1777 66.7464 49.1776 61.7655C51.7187 58.6012 53.1122 55.0323 53.3118 51.1766C53.5758 46.0798 52.0129 41.9495 48.4825 38.4142C45.9659 35.8941 43.0936 34.3724 39.4765 33.6429C37.2512 33.1941 33.3329 33.335 31.2363 33.9391C26.5147 35.2999 22.4538 38.6672 20.3072 43.0016C18.8618 45.92 18.6526 46.9472 18.5524 51.6208L18.464 55.7345L19.8052 56.1449C22.3202 56.9143 25.2556 57.2849 27.1231 57.0689L28.2684 56.9366L28.331 52.8073C28.3935 48.6912 28.3955 48.6743 28.9694 47.5071C29.7033 46.014 31.202 44.521 32.703 43.788C33.7871 43.2584 34.0453 43.0187 36.0329 43.0187C37.9605 43.0187 38.3054 43.2689 39.3075 43.7369C43.5155 45.7018 44.7438 50.1638 42.3332 54.7275C41.5951 56.1248 39.568 58.1748 38.0075 59.1021C36.161 60.1992 33.5576 61.0688 31.0796 61.4158C29.1488 61.6861 28.4194 61.6976 25.8718 61.4975C19.4289 60.9915 15.9893 59.7321 12.9926 56.7816C11.5508 55.3621 11.1724 54.8456 10.4147 53.2639C9.08806 50.4946 8.81755 49.2191 8.82088 45.7508C8.82421 42.5348 9.05338 41.2546 10.0913 38.6547C12.4126 32.8409 17.6752 27.0452 31.7022 14.855C35.4597 11.5896 36.0327 11.1583 36.3345 11.3691C37.0428 11.8634 42.996 16.9991 45.9246 19.6423C49.8178 23.1561 55.4035 28.8327 57.3135 31.2163C62.7767 38.0333 65.0253 44.2669 64.6686 51.6052C64.4835 55.4125 63.6814 58.4613 61.9474 61.9479C58.0379 69.8086 50.6283 75.9216 42.2029 78.2374C40.1701 78.7963 37.4602 79.2166 35.8859 79.2176L34.5638 79.2184V83.6092V88L35.2004 87.9949C35.5506 87.9922 36.7184 87.9052 37.7957 87.8015C53.095 86.3293 66.8591 75.471 71.5576 61.1674C73.1753 56.2422 73.6507 51.8833 73.1342 46.7117C71.8665 34.0194 65.1963 24.6777 45.3369 7.7819C39.965 3.21157 36.0166 -0.013617 35.8099 4.32282e-05C35.7171 0.00628792 32.0713 3.13175 27.7082 6.9455Z" fill="#7B51F1"/>
</svg>
