<svg width="24" height="24" viewBox="0 0 24 24" fill="none" xmlns="http://www.w3.org/2000/svg">
<mask id="mask0_1_3106" style="mask-type:alpha" maskUnits="userSpaceOnUse" x="0" y="0" width="24" height="24">
<rect width="24" height="24" fill="white"/>
</mask>
<g mask="url(#mask0_1_3106)">
<path d="M11.9989 3C14.3347 5.06658 17.3833 6.14257 20.4989 6C20.9524 7.54302 21.0912 9.16147 20.907 10.7592C20.7227 12.3569 20.2192 13.9013 19.4263 15.3005C18.6333 16.6998 17.5672 17.9254 16.2913 18.9045C15.0154 19.8836 13.5556 20.5962 11.9989 21C10.4421 20.5962 8.98234 19.8836 7.7064 18.9045C6.43047 17.9254 5.36437 16.6998 4.57145 15.3005C3.77854 13.9013 3.27499 12.3569 3.09073 10.7592C2.90647 9.16147 3.04527 7.54302 3.49886 6C6.61439 6.14257 9.66303 5.06658 11.9989 3Z" stroke="#7B51F1" stroke-width="2" stroke-linecap="round" stroke-linejoin="round"/>
<path d="M11 11C11 11.2652 11.1054 11.5196 11.2929 11.7071C11.4804 11.8946 11.7348 12 12 12C12.2652 12 12.5196 11.8946 12.7071 11.7071C12.8946 11.5196 13 11.2652 13 11C13 10.7348 12.8946 10.4804 12.7071 10.2929C12.5196 10.1054 12.2652 10 12 10C11.7348 10 11.4804 10.1054 11.2929 10.2929C11.1054 10.4804 11 10.7348 11 11Z" stroke="#7B51F1" stroke-width="2" stroke-linecap="round" stroke-linejoin="round"/>
<path d="M12 12V14.5" stroke="#7B51F1" stroke-width="2" stroke-linecap="round" stroke-linejoin="round"/>
</g>
</svg>
