<svg width="24" height="24" viewBox="0 0 24 24" fill="none" xmlns="http://www.w3.org/2000/svg">
<mask id="mask0_1_17011" style="mask-type:alpha" maskUnits="userSpaceOnUse" x="0" y="0" width="24" height="24">
<rect width="24" height="24" fill="white"/>
</mask>
<g mask="url(#mask0_1_17011)">
<path d="M12 24C18.6274 24 24 18.6274 24 12C24 5.37258 18.6274 0 12 0C5.37258 0 0 5.37258 0 12C0 18.6274 5.37258 24 12 24Z" fill="#1977F3"/>
<path d="M16.6717 15.4696L17.2033 12H13.8755V9.74886C13.8755 8.80047 14.3396 7.87402 15.8313 7.87402H17.345V4.92085C17.345 4.92085 15.9714 4.68628 14.6585 4.68628C11.918 4.68628 10.1258 6.34681 10.1258 9.35566V12H7.07812V15.4696H10.1258V23.8549C10.7367 23.9511 11.3628 24 12.0006 24C12.6385 24 13.2646 23.9494 13.8755 23.8549V15.4696H16.6717Z" fill="white"/>
</g>
</svg>
