<svg width="27" height="32" viewBox="0 0 27 32" fill="none" xmlns="http://www.w3.org/2000/svg">
<path fill-rule="evenodd" clip-rule="evenodd" d="M10.0757 2.52564C6.56027 5.59845 5.06563 6.96852 4.03255 8.06517C1.81652 10.4175 0.722755 12.2317 0.169675 14.4723C0.0242286 15.0617 0.00286006 15.3248 0.000153416 16.5657C-0.00233954 17.6792 0.0249411 18.1149 0.126725 18.5881C0.376804 19.7516 0.811005 20.8199 1.38859 21.6928C1.8022 22.3179 2.6756 23.2229 3.33986 23.7149C4.02763 24.2242 5.36714 24.8933 6.15014 25.1187L6.72801 25.285V27.6413V29.9975L8.44993 30.981C9.39697 31.5219 10.1983 31.9752 10.2306 31.9881C10.2629 32.0012 10.2894 30.636 10.2894 28.9545C10.2894 26.2494 10.302 25.8972 10.399 25.8972C10.4593 25.8972 10.8199 25.8635 11.2003 25.8223C13.9349 25.5259 16.4282 24.2714 17.8828 22.4602C18.8068 21.3095 19.3135 20.0118 19.3861 18.6097C19.4821 16.7563 18.9138 15.2544 17.63 13.9688C16.7149 13.0524 15.6704 12.499 14.3551 12.2338C13.5459 12.0706 12.1211 12.1218 11.3586 12.3415C9.6417 12.8363 8.16502 14.0608 7.38444 15.6369C6.85885 16.6982 6.78278 17.0717 6.74631 18.7712L6.71419 20.2671L7.20188 20.4163C8.11644 20.6961 9.18386 20.8309 9.86294 20.7523L10.2794 20.7042L10.3022 19.2026C10.3249 17.7059 10.3256 17.6997 10.5343 17.2753C10.8012 16.7324 11.3462 16.1894 11.892 15.9229C12.2862 15.7303 12.3801 15.6432 13.1029 15.6432C13.8038 15.6432 13.9292 15.7341 14.2936 15.9043C15.8238 16.6188 16.2705 18.2414 15.3939 19.9009C15.1255 20.409 14.3884 21.1545 13.8209 21.4917C13.1494 21.8906 12.2028 22.2068 11.3017 22.333C10.5996 22.4313 10.3343 22.4355 9.40794 22.3627C7.06505 22.1787 5.8143 21.7207 4.72459 20.6479C4.20029 20.1317 4.06268 19.9438 3.78717 19.3687C3.30475 18.3617 3.20638 17.8979 3.20759 16.6366C3.2088 15.4672 3.29214 15.0017 3.66957 14.0562C4.51369 11.9421 6.42735 9.83462 11.5281 5.40181C12.8944 4.2144 13.1028 4.05757 13.2125 4.13421C13.4701 4.31396 15.6349 6.18148 16.6998 7.14266C18.1156 8.42041 20.1467 10.4846 20.8413 11.3514C22.8279 13.8303 23.6456 16.097 23.5159 18.7655C23.4486 20.15 23.1569 21.2586 22.5263 22.5265C21.1047 25.385 18.4103 27.6079 15.3465 28.45C14.6073 28.6532 13.6219 28.8061 13.0494 28.8064L12.5687 28.8067V30.4033V32L12.8001 31.9982C12.9275 31.9972 13.3522 31.9655 13.7439 31.9278C19.3073 31.3925 24.3124 27.444 26.0209 22.2427C26.6092 20.4517 26.7821 18.8666 26.5943 16.9861C26.1333 12.3707 23.7078 8.9737 16.4862 2.82978C14.5327 1.16784 13.0969 -0.00495165 13.0218 1.57193e-05C12.988 0.00228652 11.6623 1.13882 10.0757 2.52564Z" fill="#7B51F1"/>
</svg>
