<svg width="20" height="20" viewBox="0 0 20 20" fill="none" xmlns="http://www.w3.org/2000/svg">
<path d="M10 0C15.5228 0 20 4.47715 20 10C20 15.5228 15.5228 20 10 20C8.16612 20 6.44753 19.5064 4.96988 18.6447L0.00418019 20L1.35614 15.0315C0.49396 13.5536 0 11.8345 0 10C0 4.47715 4.47715 0 10 0ZM6.39134 5.30833C6.26195 5.31742 6.13509 5.34902 6.01959 5.40811C5.93294 5.45244 5.8525 5.51651 5.72611 5.63586C5.60676 5.74855 5.53759 5.84697 5.46471 5.94186C5.09501 6.4232 4.89631 7.01405 4.9 7.62098C4.90201 8.1116 5.02945 8.5884 5.23071 9.0336C5.63884 9.9364 6.3119 10.8908 7.20096 11.7759C7.41452 11.9885 7.62375 12.2034 7.84936 12.402C8.95282 13.3736 10.2678 14.0742 11.6897 14.4482C11.6897 14.4482 12.2497 14.5342 12.2579 14.5347C12.4434 14.5447 12.6286 14.5313 12.8143 14.5218C13.1056 14.5068 13.39 14.428 13.6474 14.2909C13.8129 14.2028 13.8912 14.159 14.0301 14.0714C14.0301 14.0714 14.0727 14.0426 14.1549 13.9814C14.2899 13.8808 14.3733 13.81 14.4856 13.6934C14.5684 13.6074 14.6396 13.5058 14.6946 13.3913C14.7728 13.2281 14.8515 12.9166 14.8828 12.6579C14.9067 12.4603 14.8995 12.3523 14.8969 12.2854C14.8926 12.1778 14.8037 12.0671 14.7063 12.0201L14.1248 11.7587C14.1248 11.7587 13.2553 11.3803 12.7235 11.1377C12.6681 11.1124 12.6075 11.1007 12.5466 11.097C12.4132 11.0888 12.2637 11.1236 12.1686 11.2238C12.1636 11.2218 12.0974 11.279 11.3739 12.1555C11.334 12.2032 11.2405 12.3069 11.0788 12.2972C11.0544 12.2955 11.0301 12.292 11.0064 12.2858C10.9409 12.2685 10.8771 12.2457 10.8147 12.2193C10.691 12.1668 10.6476 12.1469 10.5631 12.1105C9.98582 11.8583 9.45602 11.5209 8.98772 11.108C8.86212 10.9974 8.74532 10.8783 8.62492 10.7616C8.20472 10.3543 7.86071 9.9211 7.60479 9.4938C7.59082 9.4705 7.56929 9.4368 7.5461 9.3991C7.50423 9.331 7.45805 9.25 7.44357 9.1944C7.4064 9.0473 7.50501 8.9291 7.50501 8.9291C7.50501 8.9291 7.74841 8.663 7.8615 8.5183C7.9703 8.379 8.06422 8.2428 8.12402 8.1457C8.24182 7.95633 8.27912 7.76062 8.21722 7.60963C7.93666 6.92565 7.6472 6.24536 7.34888 5.56894C7.29 5.43545 7.11487 5.33846 6.95561 5.32007C6.90167 5.31384 6.84777 5.30758 6.79361 5.30402C6.65955 5.29748 6.52522 5.29892 6.39134 5.30833Z" fill="#25D366"/>
</svg>
