<svg width="32" height="32" viewBox="0 0 32 32" fill="none" xmlns="http://www.w3.org/2000/svg">
<mask id="mask0_1_12430" style="mask-type:alpha" maskUnits="userSpaceOnUse" x="0" y="0" width="32" height="32">
<path d="M0 0H32V32H0V0Z" fill="white"/>
</mask>
<g mask="url(#mask0_1_12430)">
<path d="M16.332 3L17.188 3.00667L18.0093 3.02933L18.408 3.04667L19.18 3.092L19.9173 3.15333C26.1667 3.76 28.784 6.264 29.472 12.3613L29.512 12.748L29.5733 13.4853L29.628 14.4547L29.636 14.6547L29.6587 15.4773L29.6653 16.3333L29.6587 17.1893L29.636 18.0107L29.6187 18.4093L29.5733 19.1813L29.512 19.9187C28.9053 26.168 26.4013 28.7853 20.304 29.4733L19.9173 29.5133L19.18 29.5747L18.2107 29.6293L18.0107 29.6373L17.188 29.66L16.332 29.6667L15.476 29.66L14.6547 29.6373L14.256 29.62L13.484 29.5747L12.7467 29.5133C6.49733 28.9067 3.88 26.4027 3.192 20.3053L3.152 19.9187L3.09067 19.1813L3.036 18.212L3.028 18.012L3.00533 17.1893L3 16.7653V15.9013L3.00533 15.4773L3.028 14.656L3.04533 14.2573L3.09067 13.4853L3.152 12.748C3.75867 6.49867 6.26267 3.88133 12.36 3.19333L12.7467 3.15333L13.484 3.092L14.4533 3.03733L14.6533 3.02933L15.476 3.00667C15.756 3.00267 16.0413 3 16.332 3ZM16.332 15H14.9987L14.8427 15.0093C14.5186 15.0479 14.2199 15.2039 14.0032 15.448C13.7865 15.692 13.6668 16.007 13.6668 16.3333C13.6668 16.6597 13.7865 16.9747 14.0032 17.2187C14.2199 17.4627 14.5186 17.6188 14.8427 17.6573L14.9987 17.6667V21.6667L15.008 21.8227C15.0431 22.1203 15.1774 22.3974 15.3893 22.6093C15.6013 22.8212 15.8784 22.9556 16.176 22.9907L16.332 23H17.6653L17.8213 22.9907C18.119 22.9556 18.3961 22.8212 18.608 22.6093C18.8199 22.3974 18.9542 22.1203 18.9893 21.8227L18.9987 21.6667L18.9893 21.5107C18.9575 21.2386 18.8426 20.983 18.6603 20.7786C18.4781 20.5741 18.2373 20.4308 17.9707 20.368L17.8213 20.3413L17.6653 20.3333V16.3333L17.656 16.1773C17.6209 15.8797 17.4866 15.6026 17.2747 15.3907C17.0627 15.1788 16.7856 15.0444 16.488 15.0093L16.332 15ZM16.3453 11L16.176 11.0093C15.8519 11.0479 15.5533 11.2039 15.3366 11.448C15.1198 11.692 15.0002 12.007 15.0002 12.3333C15.0002 12.6597 15.1198 12.9747 15.3366 13.2187C15.5533 13.4627 15.8519 13.6188 16.176 13.6573L16.332 13.6667L16.5013 13.6573C16.8254 13.6188 17.1241 13.4627 17.3408 13.2187C17.5575 12.9747 17.6772 12.6597 17.6772 12.3333C17.6772 12.007 17.5575 11.692 17.3408 11.448C17.1241 11.2039 16.8254 11.0479 16.5013 11.0093L16.3453 11Z" fill="#FB4945"/>
</g>
</svg>
