<svg width="48" height="48" viewBox="0 0 48 48" fill="none" xmlns="http://www.w3.org/2000/svg">
<mask id="mask0_1_13377" style="mask-type:alpha" maskUnits="userSpaceOnUse" x="0" y="0" width="48" height="48">
<path d="M0 0H48V48H0V0Z" fill="white"/>
</mask>
<g mask="url(#mask0_1_13377)">
<path d="M32 28L36 28C37.0609 28 38.0783 27.5786 38.8284 26.8284C39.5786 26.0783 40 25.0609 40 24L40 10C40 8.93913 39.5786 7.92172 38.8284 7.17157C38.0783 6.42143 37.0609 6 36 6L12 6C10.9391 6 9.92172 6.42143 9.17157 7.17157C8.42143 7.92172 8 8.93913 8 10L8 24C8 25.0609 8.42143 26.0783 9.17157 26.8284C9.92172 27.5786 10.9391 28 12 28L16 28" stroke="white" stroke-width="2" stroke-linecap="round" stroke-linejoin="round"/>
<path d="M24 18L24 42L30 36" stroke="white" stroke-width="2" stroke-linecap="round" stroke-linejoin="round"/>
<path d="M18 36L24 42" stroke="white" stroke-width="2" stroke-linecap="round" stroke-linejoin="round"/>
</g>
</svg>
