<svg width="27" height="32" viewBox="0 0 27 32" fill="none" xmlns="http://www.w3.org/2000/svg">
<path fill-rule="evenodd" clip-rule="evenodd" d="M7.51617 30.9154L8.05722 27.3929L6.85197 27.3641H1.09668L5.0964 1.37019C5.10886 1.29148 5.14914 1.21841 5.20797 1.16643C5.26709 1.11445 5.34244 1.08594 5.42126 1.08594H15.1256C18.3475 1.08594 20.5708 1.77297 21.7314 3.1292C22.2756 3.76544 22.6222 4.43048 22.79 5.16207C22.9659 5.92989 22.9688 6.84711 22.7972 7.96602L22.7848 8.04741V8.76444L23.329 9.08047C23.7872 9.32968 24.1514 9.61483 24.4308 9.94126C24.8962 10.4854 25.1973 11.1769 25.3245 11.9964C25.4561 12.8394 25.4126 13.8427 25.1973 14.9786C24.949 16.2849 24.5476 17.4228 24.0054 18.3537C23.5069 19.2115 22.8717 19.9232 22.1174 20.4745C21.3973 20.9985 20.5418 21.3962 19.5745 21.6507C18.637 21.9008 17.5682 22.0271 16.396 22.0271H15.6408C15.1009 22.0271 14.5764 22.2264 14.1646 22.5837C13.7516 22.9485 13.4787 23.4469 13.3949 23.9919L13.3378 24.3092L12.3818 30.518L12.3386 30.7458C12.327 30.818 12.3073 30.8539 12.2783 30.8782C12.2525 30.9005 12.2155 30.9154 12.1792 30.9154H7.51617Z" fill="#28356A"/>
<path fill-rule="evenodd" clip-rule="evenodd" d="M23.845 8.13019C23.8163 8.31999 23.7829 8.51395 23.7459 8.71326C22.4661 15.4481 18.0876 17.7747 12.4958 17.7747H9.64858C8.96466 17.7747 8.38827 18.2835 8.28191 18.975L6.4113 31.1369C6.34204 31.591 6.68341 32 7.13027 32H12.1802C12.7781 32 13.2861 31.5548 13.3802 30.9503L13.4298 30.6875L14.3806 24.503L14.4418 24.1638C14.5348 23.5573 15.0439 23.1117 15.6418 23.1117H16.397C21.2896 23.1117 25.1198 21.0759 26.2392 15.184C26.7067 12.7228 26.4647 10.6677 25.2273 9.22236C24.8529 8.78662 24.3883 8.42484 23.845 8.13019Z" fill="#298FC2"/>
<path fill-rule="evenodd" clip-rule="evenodd" d="M22.5067 7.5831C22.3111 7.52458 22.1094 7.47171 21.9025 7.42389C21.6944 7.37725 21.4814 7.33597 21.2621 7.29973C20.4944 7.1726 19.6531 7.1123 18.7522 7.1123H11.146C10.9585 7.1123 10.7805 7.15567 10.6214 7.23409C10.2705 7.40696 10.01 7.74735 9.9468 8.16408L8.32859 18.6688L8.28223 18.975C8.38858 18.2836 8.96498 17.7747 9.64889 17.7747H12.4961C18.088 17.7747 22.4664 15.4469 23.7462 8.71329C23.7844 8.51398 23.8166 8.32002 23.8453 8.13022C23.5216 7.95408 23.1709 7.80349 22.7933 7.67517C22.7 7.64339 22.6038 7.6128 22.5067 7.5831Z" fill="#22284F"/>
<path fill-rule="evenodd" clip-rule="evenodd" d="M9.94648 8.16414C10.0097 7.74741 10.2702 7.40701 10.6211 7.23533C10.7814 7.15662 10.9581 7.11325 11.1456 7.11325H18.7518C19.6528 7.11325 20.4941 7.17384 21.2617 7.30097C21.4811 7.33691 21.6941 7.3785 21.9022 7.42513C22.1091 7.47265 22.3108 7.52582 22.5064 7.58404C22.6035 7.61374 22.6997 7.64463 22.7939 7.67523C23.1715 7.80354 23.5224 7.95533 23.8461 8.13028C24.2269 5.64147 23.8429 3.94692 22.5302 2.41247C21.0826 0.722969 18.4705 0 15.1277 0H5.4231C4.74035 0 4.15786 0.508811 4.05238 1.20148L0.0103445 27.4627C-0.0693486 27.9822 0.321582 28.4509 0.832777 28.4509H6.82396L9.94648 8.16414Z" fill="#28356A"/>
</svg>
