<svg width="52" height="32" viewBox="0 0 52 32" fill="none" xmlns="http://www.w3.org/2000/svg">
<path fill-rule="evenodd" clip-rule="evenodd" d="M46.6206 25.6578C40.9737 29.7984 32.7876 32 25.7376 32C15.8574 32 6.96046 28.3712 0.228368 22.3315C-0.300113 21.8571 0.170691 21.2094 0.806477 21.5772C8.06973 25.7765 17.0526 28.3059 26.3305 28.3059C32.5891 28.3059 39.4687 27.0158 45.7998 24.3478C46.7534 23.944 47.5542 24.9715 46.6206 25.6578ZM48.9693 22.9925C49.6923 23.9121 48.1658 27.6982 47.4845 29.3893C47.2779 29.9011 47.7205 30.1076 48.1873 29.7198C51.216 27.2024 51.9993 21.9264 51.3796 21.1641C50.764 20.4085 45.4684 19.7581 42.2359 22.013C41.7382 22.3595 41.8241 22.8393 42.3754 22.7726C44.1955 22.5567 48.2477 22.073 48.9693 22.9925Z" fill="#FF9900"/>
<path fill-rule="evenodd" clip-rule="evenodd" d="M40.7898 16.2132L46.6675 1.34993C46.7909 1.04875 46.8539 0.836855 46.8539 0.712917C46.8539 0.501023 46.7292 0.394409 46.4797 0.394409H44.9841C44.6984 0.394409 44.504 0.43972 44.3953 0.527676C44.288 0.616965 44.182 0.811534 44.0747 1.11272L40.4679 11.4102L36.7283 1.11272C36.621 0.811534 36.515 0.616965 36.4077 0.527676C36.3004 0.43972 36.1046 0.394409 35.8189 0.394409H34.216C33.9665 0.394409 33.8418 0.501023 33.8418 0.712917C33.8418 0.836855 33.9035 1.04875 34.0282 1.34993L39.1843 13.9836L38.6773 15.3376C38.3741 16.1878 38.0361 16.7716 37.6619 17.0901C37.2876 17.4086 36.7619 17.5672 36.0858 17.5672C35.7827 17.5672 35.5426 17.5485 35.3655 17.5139C35.1871 17.4792 35.053 17.4605 34.9645 17.4605C34.6976 17.4605 34.5634 17.6285 34.5634 17.9643V18.6546C34.5634 18.9025 34.6077 19.0837 34.6976 19.1983C34.7861 19.313 34.9283 19.3982 35.1254 19.4502C35.5694 19.5728 36.0778 19.6368 36.6478 19.6368C37.6632 19.6368 38.4868 19.3716 39.1185 18.8399C39.753 18.3108 40.3096 17.4339 40.7898 16.2132Z" fill="#232F3E"/>
<path fill-rule="evenodd" clip-rule="evenodd" d="M18.8491 4.04731C18.5903 3.18907 18.2214 2.45877 17.7399 1.85774C17.2597 1.25671 16.6722 0.795603 15.9774 0.477095C15.2839 0.158587 14.5086 0 13.6529 0C12.8521 0 12.0674 0.149259 11.3029 0.450442C10.537 0.751624 9.81533 1.19407 9.13796 1.77778L9.00517 0.927537C8.95152 0.57438 8.7463 0.397135 8.38951 0.397135H7.21451C6.85906 0.397135 6.68066 0.57438 6.68066 0.927537V18.7906C6.68066 19.1451 6.85906 19.321 7.21451 19.321H8.79056C9.14735 19.321 9.32441 19.1438 9.32441 18.7906V12.5804C10.482 13.6239 11.8622 14.1463 13.4651 14.1463C14.3369 14.1463 15.1296 13.973 15.8419 13.6292C16.5541 13.284 17.1591 12.8016 17.658 12.1819C18.157 11.5636 18.5446 10.8119 18.8196 9.92571C19.0959 9.04082 19.2341 8.04931 19.2341 6.95253C19.2368 5.8744 19.1067 4.90555 18.8491 4.04731ZM12.8521 12.022C11.6395 12.022 10.4645 11.5982 9.32575 10.748V3.34366C10.4471 2.5294 11.6409 2.12294 12.9057 2.12294C15.3282 2.12294 16.5394 3.77811 16.5394 7.08579C16.538 10.3775 15.3094 12.022 12.8521 12.022Z" fill="#232F3E"/>
<path fill-rule="evenodd" clip-rule="evenodd" d="M30.8988 1.04215C30.0967 0.353156 28.8506 0.00799561 27.1592 0.00799561C26.3222 0.00799561 25.4852 0.0839576 24.6482 0.233216C23.8099 0.383808 23.1071 0.582375 22.537 0.830251C22.3237 0.91954 22.1802 1.01149 22.1091 1.10878C22.038 1.20606 22.0018 1.37931 22.0018 1.62585V2.3415C22.0018 2.66 22.1172 2.81992 22.3492 2.81992C22.4203 2.81992 22.4968 2.8066 22.5773 2.77994C22.6577 2.75329 22.7248 2.73197 22.7771 2.71331C24.1493 2.30685 25.4571 2.10295 26.7045 2.10295C27.7722 2.10295 28.5206 2.29752 28.9485 2.68799C29.3764 3.07713 29.5897 3.74879 29.5897 4.70432V6.45544C28.3436 6.15426 27.2209 6.005 26.223 6.005C24.6563 6.005 23.4102 6.39014 22.4834 7.15909C21.5578 7.92804 21.0938 8.95952 21.0938 10.2509C21.0938 11.4556 21.468 12.4138 22.2164 13.1308C22.9636 13.8477 23.9789 14.2049 25.2612 14.2049C26.0271 14.2049 26.797 14.0543 27.5723 13.7545C28.3476 13.4546 29.0545 13.0282 29.6956 12.4804L29.8298 13.356C29.8834 13.6918 30.0793 13.8597 30.4186 13.8597H31.5668C31.9222 13.8597 32.102 13.6825 32.102 13.3293V4.25387C32.1006 2.8026 31.6996 1.73247 30.8988 1.04215ZM29.5897 10.8639C29.0022 11.3063 28.3879 11.6422 27.7467 11.8727C27.1055 12.1033 26.4912 12.2179 25.9037 12.2179C25.2089 12.2179 24.6751 12.0367 24.3008 11.6742C23.9266 11.3117 23.7402 10.7946 23.7402 10.1216C23.7402 8.58238 24.7462 7.8121 26.7581 7.8121C27.2209 7.8121 27.6971 7.84408 28.1867 7.90538C28.6762 7.96802 29.1444 8.05198 29.5897 8.15726V10.8639Z" fill="#232F3E"/>
</svg>
