<svg width="54" height="23" viewBox="0 0 54 23" fill="none" xmlns="http://www.w3.org/2000/svg">
<path fill-rule="evenodd" clip-rule="evenodd" d="M9.86792 2.95373C9.23506 3.72759 8.22249 4.33795 7.20992 4.25076C7.08335 3.20442 7.57909 2.09268 8.15921 1.40602C8.79206 0.610365 9.89956 0.0435975 10.7961 0C10.9016 1.08994 10.4902 2.15808 9.86792 2.95373ZM10.784 4.45784C9.89195 4.40479 9.07799 4.73507 8.42053 5.00184C7.99744 5.17352 7.63916 5.31889 7.36658 5.31889C7.0607 5.31889 6.68763 5.16574 6.26875 4.99379C5.71989 4.76848 5.09239 4.51088 4.43435 4.52324C2.92604 4.54504 1.52321 5.42789 0.75324 6.83391C-0.828899 9.64594 0.341884 13.8095 1.87129 16.0984C2.62016 17.2319 3.51671 18.4744 4.69804 18.4308C5.21775 18.4106 5.59161 18.2466 5.97851 18.077C6.42394 17.8817 6.88666 17.6788 7.60918 17.6788C8.30664 17.6788 8.74913 17.8764 9.17389 18.0661C9.57777 18.2464 9.96563 18.4197 10.5414 18.409C11.7649 18.3872 12.5349 17.2755 13.2838 16.142C14.0919 14.9254 14.4471 13.7381 14.501 13.5579L14.5073 13.537C14.506 13.5357 14.496 13.531 14.4784 13.5226C14.2083 13.3948 12.1434 12.418 12.1235 9.79853C12.1037 7.59989 13.7614 6.48592 14.0223 6.31056C14.0382 6.29989 14.0489 6.29269 14.0538 6.28894C12.999 4.67583 11.3536 4.50144 10.784 4.45784ZM19.2571 18.2891V1.29701H25.4275C28.6128 1.29701 30.8384 3.56408 30.8384 6.87749C30.8384 10.1909 28.5706 12.4798 25.3431 12.4798H21.8096V18.2891H19.2571ZM21.8084 3.52049H24.7512C26.9662 3.52049 28.2319 4.74121 28.2319 6.88839C28.2319 9.03557 26.9662 10.2672 24.7406 10.2672H21.8084V3.52049ZM39.2606 16.251C38.5856 17.5807 37.0984 18.4199 35.4951 18.4199C33.1219 18.4199 31.4659 16.9594 31.4659 14.7577C31.4659 12.5779 33.0692 11.3244 36.0331 11.1392L39.2184 10.943V10.0056C39.2184 8.6214 38.343 7.86935 36.7819 7.86935C35.4951 7.86935 34.5564 8.55601 34.3665 9.60235H32.0672C32.141 7.40067 34.145 5.79847 36.8558 5.79847C39.7775 5.79847 41.676 7.37888 41.676 9.83123V18.2891H39.3134V16.251H39.2606ZM36.1848 16.4036C34.8242 16.4036 33.9593 15.7278 33.9593 14.6924C33.9593 13.6242 34.7925 13.003 36.3852 12.9049L39.2225 12.7196V13.6787C39.2225 15.27 37.9146 16.4036 36.1848 16.4036ZM49.5151 18.954C48.492 21.9295 47.3212 22.9105 44.832 22.9105C44.6421 22.9105 44.0093 22.8887 43.8616 22.8451V20.8069C44.0198 20.8287 44.4101 20.8505 44.6105 20.8505C45.7391 20.8505 46.3719 20.36 46.7622 19.0848L46.9942 18.3327L42.6697 5.96195H45.3383L48.3443 16.0003H48.3971L51.4031 5.96195H53.9979L49.5151 18.954Z" fill="#121212"/>
</svg>
