<svg width="54" height="23" viewBox="0 0 54 23" fill="none" xmlns="http://www.w3.org/2000/svg">
<path fill-rule="evenodd" clip-rule="evenodd" d="M24.9065 17.2472V10.7765H28.2742C29.6542 10.7765 30.819 10.318 31.7685 9.4136L31.9964 9.18432C33.7309 7.3119 33.6169 4.39501 31.7685 2.6627C30.8443 1.7456 29.5782 1.24883 28.2742 1.27431H22.8682V17.2472H24.9065ZM24.903 8.8148V3.23576H28.3219C29.0563 3.23576 29.7527 3.51598 30.2719 4.02549C31.3735 5.09544 31.3989 6.8787 30.3352 7.98686C29.816 8.53458 29.0816 8.84028 28.3219 8.8148H24.903ZM41.5046 7.17172C40.631 6.36926 39.4409 5.96165 37.9343 5.96165C35.9973 5.96165 34.5413 6.67496 33.5791 8.08883L35.3769 9.22247C36.0352 8.25441 36.9341 7.77039 38.0736 7.77039C38.7952 7.77039 39.4916 8.03788 40.036 8.5219C40.5677 8.98045 40.8716 9.64281 40.8716 10.3434V10.8147C40.0866 10.3816 39.0991 10.1523 37.8837 10.1523C36.4657 10.1523 35.3263 10.4835 34.478 11.1586C33.6297 11.8337 33.1993 12.7253 33.1993 13.8589C33.174 14.8907 33.6171 15.8715 34.402 16.5338C35.1996 17.2471 36.2125 17.6038 37.4026 17.6038C38.8079 17.6038 39.922 16.9796 40.7703 15.7314H40.8589V17.2471H42.8086V10.509C42.8086 9.09509 42.3782 7.97419 41.5046 7.17172ZM35.9688 15.2346C35.5509 14.9289 35.2977 14.4322 35.2977 13.8972C35.2977 13.2985 35.5762 12.8018 36.1207 12.4069C36.6779 12.012 37.3743 11.8082 38.1974 11.8082C39.337 11.7955 40.2234 12.0502 40.8565 12.5597C40.8565 13.4259 40.5146 14.1774 39.8435 14.8143C39.2357 15.4257 38.4126 15.7696 37.5516 15.7696C36.9818 15.7823 36.4246 15.5913 35.9688 15.2346ZM47.1902 22.0492L54.0015 6.3183H51.7859L48.6335 14.1646H48.5955L45.367 6.3183H43.1515L47.6206 16.5465L45.0885 22.0492H47.1902Z" fill="#3C4043"/>
<path d="M17.8627 9.37537C17.8627 8.75123 17.812 8.12709 17.7107 7.51569H9.11426V11.044H14.0392C13.8366 12.1776 13.1783 13.1966 12.2161 13.8335V16.1263H15.1533C16.8752 14.5341 17.8627 12.1776 17.8627 9.37537Z" fill="#4285F4"/>
<path d="M9.11629 18.3426C11.5724 18.3426 13.6488 17.5274 15.1554 16.1263L12.2181 13.8335C11.3952 14.394 10.3444 14.7124 9.11629 14.7124C6.73612 14.7124 4.7231 13.0948 4.00145 10.9294H0.975586V13.2986C2.52017 16.3938 5.67264 18.3426 9.11629 18.3426Z" fill="#25D366"/>
<path d="M4.00452 10.9294C3.62465 9.79574 3.62465 8.5602 4.00452 7.41382V5.05737H0.97818C-0.32606 7.64309 -0.32606 10.7001 0.97818 13.2858L4.00452 10.9294Z" fill="#FBBC04"/>
<path d="M9.11629 3.63075C10.4203 3.60528 11.6737 4.10204 12.6106 5.00641L15.2187 2.38248C13.5601 0.828495 11.3825 -0.0249207 9.11629 0.00055435C5.67264 0.00055435 2.52017 1.96214 0.975586 5.05736L4.00145 7.42654C4.7231 5.24842 6.73612 3.63075 9.11629 3.63075Z" fill="#EA4335"/>
</svg>
